<?xml version="1.0" standalone="no"?>
<!DOCTYPE svg PUBLIC "-//W3C//DTD SVG 20010904//EN"
 "http://www.w3.org/TR/2001/REC-SVG-20010904/DTD/svg10.dtd">
<svg version="1.0" xmlns="http://www.w3.org/2000/svg"
 width="300.000000pt" height="300.000000pt" viewBox="0 0 300.000000 300.000000"
 preserveAspectRatio="xMidYMid meet">
<metadata>
Created by potrace 1.11, written by Peter Selinger 2001-2013
</metadata>
<g transform="translate(0.000000,300.000000) scale(0.100000,-0.100000)"
fill="#000000" stroke="none">
<path d="M1966 2815 c-14 -7 -77 -122 -186 -338 l-165 -327 -90 197 c-226 503
-204 461 -254 469 -19 3 -33 -2 -48 -18 -11 -13 -117 -237 -236 -498 -118
-261 -231 -509 -250 -550 -19 -41 -121 -266 -227 -500 -105 -234 -204 -452
-220 -485 -106 -228 -222 -491 -226 -511 -5 -29 34 -74 64 -74 21 0 72 36 72
51 0 5 18 48 40 96 58 124 58 126 281 616 110 243 216 475 235 515 19 41 34
75 34 77 0 2 25 56 55 120 30 63 55 117 55 119 0 2 17 42 39 88 21 45 69 151
106 233 37 83 84 186 104 230 20 44 55 119 76 167 22 47 42 84 45 82 2 -3 64
-134 136 -292 l131 -287 -433 -866 c-452 -905 -447 -895 -404 -934 22 -20 74
-23 96 -4 9 7 151 283 316 614 165 330 302 602 305 605 2 3 89 5 193 5 l189 0
52 -115 c29 -63 72 -157 96 -208 23 -52 43 -96 43 -98 0 -2 23 -52 50 -110 28
-58 50 -108 50 -109 0 -2 23 -51 50 -110 28 -59 50 -108 50 -110 0 -2 16 -39
36 -82 20 -43 53 -114 73 -159 47 -106 60 -123 96 -130 22 -4 36 0 53 16 37
34 33 52 -53 235 -20 44 -57 125 -82 180 -25 55 -56 125 -70 155 -14 30 -59
129 -100 220 -41 91 -86 190 -100 220 -77 164 -91 195 -87 199 2 3 134 5 292
6 158 1 297 5 310 9 60 20 58 132 -2 153 -12 4 -169 7 -351 8 l-330 0 -18 35
c-18 36 -84 179 -132 289 l-29 63 175 349 c95 192 176 349 179 350 3 1 208 2
456 3 429 1 453 2 473 20 27 24 28 76 2 107 l-19 24 -488 0 c-309 0 -495 -3
-508 -10z m-293 -1121 c20 -45 37 -87 39 -94 2 -11 -20 -14 -103 -14 l-106 -1
55 112 c64 127 56 127 115 -3z"/>
</g>
</svg>
